<svg width="800" height="800" viewBox="0 0 24 24" data-name="Line Color" xmlns="http://www.w3.org/2000/svg" class="icon line-color"><g fill="none" stroke-width="2" stroke-linecap="round" stroke-linejoin="round" stroke="#326496"><path d="M10 17h4m0-13a1 1 0 0 0-1-1h-2a1 1 0 0 0-1 1v1h4Zm4 15h1a1 1 0 0 0 1-1v-3h-2ZM6 15H4v3a1 1 0 0 0 1 1h1Z"/><path stroke="#000" d="M19 9V6a1 1 0 0 0-1-1H6a1 1 0 0 0-1 1v3a2 2 0 0 0 2 2h10a2 2 0 0 0 2-2m-2 2H7a2 2 0 0 1-1-.28V20a1 1 0 0 0 1 1h10a1 1 0 0 0 1-1v-9.28a2 2 0 0 1-1 .28"/><path d="M12 10v2"/></g></svg>