<svg height="800" width="800" xmlns="http://www.w3.org/2000/svg" viewBox="0 0 60.626 60.626" fill="#643296"><path d="M41.755 14.064a1 1 0 0 0 0 9.184 1 1 0 0 0 0-9.184m17.846 6.803L33.927 43.31c-1.605 1.404-3.213 2.068-4.778 1.971-2.286-.145-3.798-1.882-3.812-1.898L1.066 20.46 0 21.324l24.196 22.847c.248.28 2.037 2.192 4.833 2.375q.214.015.429.016c1.863 0 3.71-.791 5.496-2.352l25.672-22.444zM27.054 40.402q.01.014.022.023.164.163.34.301l.72.646c1.487 1.33 3.379.664 4.26-.591.17-.118.334-.243.488-.386q4.224-3.861 8.443-7.727c.16-.086.318-.188.471-.324q5.204-4.655 10.404-9.311c2.111-1.887-.998-4.974-3.098-3.097l-7.474 6.687q-.018-.018-.034-.037c-1.652-1.63-4.158-1.48-5.81.031l-7.881 7.208-14.972-13.403c-2.62-2.348-6.507 1.511-3.87 3.872z"/></svg>