<svg height="800" width="800" xmlns="http://www.w3.org/2000/svg" viewBox="0 0 451.719 451.719"><path fill="#329632" d="M119 15h214v422H119z"/><path fill="#fff" d="M119 42h214v69H119z"/><path d="M347.362 389.708v26.52c0 19.43-15.81 35.24-35.24 35.24h-172.52c-19.44 0-35.24-15.81-35.24-35.24v-26.52c0-11.25 5.3-21.28 13.54-27.74-8.24-6.46-13.54-16.49-13.54-27.74v-26.52c0-11.25 5.3-21.28 13.54-27.74-8.24-6.46-13.54-16.49-13.54-27.74v-26.52c0-11.25 5.3-21.28 13.54-27.74-8.24-6.46-13.54-16.49-13.54-27.74v-26.52c0-11.25 5.3-21.28 13.54-27.74a35.55 35.55 0 0 1-9.86-12.07 35 35 0 0 1-3.68-15.67v-57.05c0-17.05 13.87-30.93 30.93-30.93h181.13c17.06 0 30.94 13.88 30.94 30.93v57.05c0 11.25-5.31 21.28-13.55 27.74 8.24 6.46 13.55 16.49 13.55 27.74v26.52c0 11.25-5.31 21.28-13.55 27.74 8.24 6.46 13.55 16.49 13.55 27.74v26.52c0 11.25-5.31 21.28-13.55 27.74 8.24 6.46 13.55 16.49 13.55 27.74v26.52c0 11.25-5.31 21.28-13.55 27.74 8.24 6.46 13.55 16.49 13.55 27.74m-15 26.52v-26.52c0-11.16-9.08-20.24-20.24-20.24h-172.52c-11.16 0-20.24 9.08-20.24 20.24v26.52c0 11.16 9.08 20.24 20.24 20.24h172.52c11.16 0 20.24-9.08 20.24-20.24m0-82v-26.52c0-11.16-9.08-20.24-20.24-20.24h-172.52c-11.16 0-20.24 9.08-20.24 20.24v26.52c0 11.16 9.08 20.24 20.24 20.24h172.52c11.16 0 20.24-9.08 20.24-20.24m0-82v-26.52c0-11.16-9.08-20.24-20.24-20.24h-172.52c-11.16 0-20.24 9.08-20.24 20.24v26.52c0 11.16 9.08 20.24 20.24 20.24h172.52c11.16 0 20.24-9.08 20.24-20.24m0-82v-26.52c0-11.16-9.08-20.24-20.24-20.24h-172.52c-11.16 0-20.24 9.08-20.24 20.24v26.52c0 11.16 9.08 20.24 20.24 20.24h172.52c11.16 0 20.24-9.08 20.24-20.24m0-82v-30.42c0-8.79-7.15-15.94-15.94-15.94h-181.13c-8.78 0-15.93 7.15-15.93 15.94v30.42c0 11.16 9.08 20.24 20.24 20.24h19.19c3.74-33.7 32.39-60 67.07-60s63.32 26.3 67.07 60h19.19c11.16 0 20.24-9.08 20.24-20.24m0-56.93v-.12c0-8.78-7.15-15.93-15.94-15.93h-181.13c-8.79 0-15.93 7.15-15.93 15.93v.12a30.7 30.7 0 0 1 15.93-4.43h181.13c5.83 0 11.28 1.62 15.94 4.43m-158.46 77.17h103.91c-3.65-25.41-25.55-45-51.95-45s-48.3 19.59-51.96 45"/></svg>